<svg width="21" height="14" viewBox="0 0 21 14" fill="none" xmlns="http://www.w3.org/2000/svg">
    <path fill-rule="evenodd" clip-rule="evenodd" d="M20.915 7.24306C21.0283 7.08102 21.0283 6.91898 20.915 6.75694L20.8665 6.68403L20.3566 5.97917C20.0329 5.52546 19.5474 4.97454 18.9 4.32639C18.2526 3.67824 17.5243 3.02605 16.715 2.36979C15.9058 1.71354 14.9428 1.15452 13.826 0.692708C12.7092 0.2309 11.6006 0 10.5 0C9.39942 0 8.28267 0.243053 7.14971 0.729167C6.01676 1.21528 5.0659 1.75405 4.29711 2.34549C3.52832 2.93692 2.77977 3.62152 2.05145 4.39931C1.32312 5.17709 0.845666 5.71991 0.619076 6.02778C0.392485 6.33565 0.214452 6.5787 0.0849715 6.75694C-0.0283238 6.91898 -0.0283238 7.08102 0.0849715 7.24306L0.594798 7.92361C0.918499 8.39352 1.40809 8.96064 2.06358 9.625C2.71908 10.2894 3.45549 10.9537 4.27283 11.6181C5.09018 12.2824 6.05722 12.8455 7.17399 13.3073C8.29076 13.7691 9.39942 14 10.5 14C11.6006 14 12.7173 13.7569 13.8503 13.2708C14.9832 12.7847 15.9341 12.246 16.7029 11.6545C17.4717 11.0631 18.2202 10.3785 18.9486 9.60069C19.6769 8.82291 20.1543 8.28009 20.3809 7.97222C20.6075 7.66435 20.7855 7.4213 20.915 7.24306ZM13.8272 8.97377C13.0453 9.65793 12.1029 10 11 10C9.88065 10 8.93416 9.66153 8.16049 8.98457C7.38683 8.30761 7 7.47943 7 6.5C7 5.53497 7.39094 4.71039 8.17284 4.02623C8.95474 3.34207 9.89711 3 11 3C12.1029 3 13.0453 3.34207 13.8272 4.02623C14.6091 4.71039 15 5.53497 15 6.5C15 7.46503 14.6091 8.28961 13.8272 8.97377Z" fill="#EFEFEF"/>
</svg>
